<svg id="Layer_1" enable-background="new 0 0 512 512" height="512" viewBox="0 0 512 512" width="512" xmlns="http://www.w3.org/2000/svg"><g><path d="m512 192.083c0-4.119-1.527-8.091-4.444-11.14-.953-.996 5.428 4.383-91.556-76.436v-88.507c0-8.836-7.163-16-16-16h-288c-8.837 0-16 7.164-16 16v88.506c-97.851 81.543-90.892 75.56-92.349 77.333-2.319 2.807-3.651 6.375-3.651 10.249v303.912c0 8.836 7.163 16 16 16h480c8.837 0 16-7.164 16-16 0-17.374 0-285.584 0-303.917zm-40.993-.083-55.007 45.839v-91.678zm-87.007-160v232.506l-128 106.667-128-106.667c0-23.641 0-203.344 0-232.506h256zm-288 205.839-55.007-45.839 55.007-45.839zm384 242.161h-448v-253.839c310.331 258.61-119.906-99.921 213.757 178.131 5.934 4.944 14.553 4.944 20.486 0 31.064-25.887 153.954-128.296 213.757-178.131z"/><path d="m249.963 246.817c3.869 1.576 8.203 1.577 12.074 0 3.814-1.554 93.417-38.814 93.417-104.454 0-50.596-57.98-79.741-99.454-51.131-41.486-28.618-99.454.546-99.454 51.131 0 65.64 89.602 102.901 93.417 104.454zm-6.13-123.827c6.384 7.474 17.949 7.475 24.334 0 18.632-21.816 55.287-8.976 55.287 19.374 0 33.442-44.204 61.183-67.453 72.145-23.267-10.971-67.455-38.709-67.455-72.145 0-28.356 36.658-41.187 55.287-19.374z"/></g></svg>