<svg id="Layer_1" enable-background="new 0 0 512 512" height="512" viewBox="0 0 512 512" width="512" xmlns="http://www.w3.org/2000/svg"><g><path d="m102.214 472.011c-5.4 0-10.854-1.168-16.034-3.551-13.681-6.292-22.18-19.556-22.18-34.615v-41.856h-18c-25.364 0-46-20.635-46-46v-260c0-25.364 20.636-46 46-46h420c25.364 0 46 20.636 46 46v260c0 25.365-20.636 46-46 46h-267.427l-70.841 70.017c-.27.266-.548.522-.835.768-7.105 6.09-15.82 9.236-24.683 9.237zm-56.214-400.022c-7.72 0-14 6.28-14 14v260c0 7.72 6.28 14 14 14h34c8.836 0 16 7.164 16 16v57.856c0 3.401 2.225 4.933 3.552 5.543 1.272.585 3.725 1.245 6.201-.651l75-74.127c2.995-2.96 7.036-4.62 11.247-4.62h274c7.72 0 14-6.28 14-14v-260c0-7.72-6.28-14-14-14h-420z"/><path d="m320.274 327.989c-2.571 0-5.15-.619-7.508-1.872l-56.766-30.172-56.766 30.173c-5.385 2.862-11.928 2.415-16.873-1.154s-7.431-9.638-6.411-15.65l10.881-64.141-46.062-45.394c-4.323-4.261-5.863-10.601-3.976-16.37s6.876-9.974 12.881-10.856l63.512-9.331 28.435-58.251c2.683-5.496 8.263-8.981 14.378-8.981s11.696 3.486 14.378 8.981l28.435 58.251 63.512 9.331c6.005.882 10.995 5.087 12.881 10.856 1.887 5.769.347 12.109-3.976 16.37l-46.062 45.394 10.881 64.141c1.02 6.012-1.466 12.081-6.411 15.65-2.778 2.005-6.063 3.025-9.363 3.025zm-64.274-66.164c2.581 0 5.162.624 7.51 1.872l35.55 18.896-6.834-40.288c-.874-5.151.822-10.405 4.543-14.072l29.113-28.69-40.07-5.887c-5.226-.768-9.736-4.065-12.053-8.812l-17.759-36.381-17.759 36.381c-2.317 4.747-6.827 8.044-12.053 8.812l-40.07 5.887 29.113 28.69c3.721 3.667 5.417 8.921 4.543 14.072l-6.834 40.288 35.55-18.896c2.348-1.248 4.929-1.872 7.51-1.872z"/></g></svg>